<?xml version="1.0" encoding="UTF-8" standalone="no"?>
<!-- Created with Inkscape (http://www.inkscape.org/) -->

<svg
   width="256"
   height="256"
   viewBox="0 0 67.733332 67.733333"
   version="1.1"
   id="svg1"
   inkscape:version="1.4.3 (0d15f75, 2025-12-25)"
   sodipodi:docname="tegning2.svg"
   xmlns:inkscape="http://www.inkscape.org/namespaces/inkscape"
   xmlns:sodipodi="http://sodipodi.sourceforge.net/DTD/sodipodi-0.dtd"
   xmlns="http://www.w3.org/2000/svg"
   xmlns:svg="http://www.w3.org/2000/svg">
  <sodipodi:namedview
     id="namedview1"
     pagecolor="#ffffff"
     bordercolor="#000000"
     borderopacity="0.25"
     inkscape:showpageshadow="2"
     inkscape:pageopacity="0.0"
     inkscape:pagecheckerboard="0"
     inkscape:deskcolor="#d1d1d1"
     inkscape:document-units="mm"
     inkscape:zoom="2.1543544"
     inkscape:cx="61.271257"
     inkscape:cy="106.99261"
     inkscape:window-width="1920"
     inkscape:window-height="1057"
     inkscape:window-x="1912"
     inkscape:window-y="-8"
     inkscape:window-maximized="1"
     inkscape:current-layer="svg1" />
  <defs
     id="defs1" />
  <g
     inkscape:groupmode="layer"
     id="layer2"
     inkscape:label="Lag 2" />
  <g
     inkscape:groupmode="layer"
     id="layer3"
     inkscape:label="Lag 3">
    <path
       style="fill:#000000;stroke-width:0.264583"
       d="m -10.439129,33.866666 c -0.08188,-0.112879 -0.204645,-0.205351 -0.245626,-0.33864 -0.08507,-0.276691 -0.06604,-0.575842 -0.122814,-0.859692 -0.893743,-4.468717 -1.530157,-8.953645 -1.842199,-13.509462 -0.51131,-7.465129 -1.62907,-17.1798039 1.105319,-24.5626563 1.074416,-2.900921 2.9010103,-3.95655 5.1581583,-5.6494107 3.1089978,-2.331749 5.73748226,-5.033876 9.4566228,-6.386291 5.9380424,-2.159288 12.3219469,-1.965013 18.5448059,-1.965013 1.146257,0 2.293812,-0.05452 3.438771,0 2.355419,0.112163 5.22873,0.48127 7.614425,0.73688 0.724204,0.07759 6.049965,0.614276 6.877542,0.73688 4.212894,0.624132 8.388294,1.589399 12.526954,2.579079 1.680279,0.401805 3.351938,0.839654 5.035347,1.228133 0.774512,0.178733 1.573733,0.257493 2.333453,0.491253 2.644663,0.813742 5.283329,1.916831 7.860048,2.947519 1.717643,0.6870564 3.513307,1.232502 5.158158,2.0878253 3.967258,2.062974 7.20862,5.2344658 9.456623,9.08818284 0.816338,1.39943536 1.590329,2.99632076 2.087825,4.54409146 0.206608,0.6427743 0.289869,1.320583 0.491254,1.9650125 0.208656,0.6677015 0.515663,1.3013661 0.736878,1.9650125 0.887979,2.6639334 1.582018,5.4746434 2.087827,8.2284894 0.508953,2.770957 0.36844,5.6765 0.36844,8.474117 0,5.158157 0,10.316315 0,15.474473 0,2.988458 0.06098,5.977535 0,8.965369 -0.05443,2.667206 -0.245625,5.313764 -0.245625,7.982865 0,2.866922 -0.04597,1.475192 0.122811,4.175651 0.147352,2.357605 0.397187,4.335479 -0.736878,6.509105 -0.263075,0.504222 -0.485185,1.04575 -0.859694,1.473758 -1.461164,1.669902 -5.393381,3.733202 -6.631916,4.421278 -0.742355,0.412419 -4.827135,2.293799 -5.649413,2.579078 -1.480505,0.513647 -4.861602,1.236192 -6.38629,1.596573 -5.682536,1.343147 -11.434437,2.52023 -17.316672,2.210639 -4.385678,-0.230825 -8.748924,-0.927262 -13.141021,-1.105318 -1.431647,-0.05804 -2.866181,0.03924 -4.298465,0 C 27.768579,79.820571 23.028889,79.248406 18.299179,78.6005 11.030426,77.60478 17.165901,78.474201 10.316316,77.126742 9.0946567,76.886416 7.8582609,76.727822 6.6319172,76.512676 3.2783375,75.924327 -3.2344465,75.17667 -5.649411,72.459836 -5.9512207,72.120301 -6.9408354,70.627805 -7.1231704,70.126383 -7.3098228,69.613089 -7.3415635,69.054974 -7.49161,68.52981 c -0.1778225,-0.622376 -0.4437552,-1.217723 -0.6140665,-1.842198 -0.5366152,-1.96759 -0.4826428,-2.428298 -0.8596931,-4.421278 -0.3715099,-1.963695 -0.9195681,-3.920222 -1.2281324,-5.895038 -0.527401,-3.375361 -0.444315,-6.798466 -0.614067,-10.193501 -0.08699,-1.739824 -0.139046,-0.243488 -0.245626,-1.842201 0,-2.611414 0.04631,0.525608 -0.122814,-1.842199 -0.05523,-0.7732 0.06437,-1.56101 0,-2.333453 -0.06499,-0.779896 -0.258589,-1.564497 -0.36844,-2.33345 -0.08368,-0.585801 0.143443,-1.268431 0,-1.842201 -0.01404,-0.05617 -0.104505,-0.06789 -0.122813,-0.122812 -0.06271,-0.188137 -0.111998,-3.471217 0,-3.807211 0.01831,-0.05493 0.104506,-0.06789 0.122813,-0.122815 0.09548,-0.286437 -0.04372,-0.843004 0,-1.10532 0.03624,-0.217451 0.245627,-0.292497 0.245627,-0.614066"
       id="path4" />
  </g>
  <g
     inkscape:label="Lag 1"
     inkscape:groupmode="layer"
     id="layer1">
    <text
       xml:space="preserve"
       style="font-style:normal;font-variant:normal;font-weight:normal;font-stretch:normal;font-size:52.9167px;font-family:Draconic;-inkscape-font-specification:Draconic;writing-mode:lr-tb;direction:ltr;white-space:pre;inline-size:77.2426;display:none;fill:#ff7f27;stroke-width:0.264583"
       x="58.357895"
       y="96.221046"
       id="text1"
       transform="matrix(6.4479593,0,0,6.4479593,-376.28628,-433.3315)"><tspan
         x="58.357895"
         y="96.221046"
         id="tspan2"></tspan></text>
    <path
       style="fill:#800000;stroke-width:0.165413"
       d="m 23.955061,60.829117 c -0.251544,-1.208633 -1.471234,-3.70357 -2.293121,-4.690689 -1.187919,-1.426739 -3.506631,-3.283948 -5.129572,-4.108611 -0.950256,-0.48285 -0.95937,-0.49407 -0.497266,-0.612039 1.243677,-0.317491 3.479851,0.290254 5.229946,1.421398 1.149796,0.74315 3.833225,3.272573 4.757231,4.484214 0.33555,0.440002 0.689171,0.800005 0.785823,0.800005 0.09665,0 0.434929,-0.17611 0.751725,-0.391354 0.316796,-0.215243 2.101937,-1.268265 3.966977,-2.340047 3.178876,-1.826803 4.269806,-2.521658 4.291604,-2.733483 0.005,-0.04891 -0.86547,-0.979844 -1.934458,-2.068733 -4.32578,-4.406323 -7.341951,-8.922181 -9.248066,-13.846356 -0.823745,-2.128028 -1.037413,-3.533429 -1.037334,-6.823083 1.78e-4,-5.777359 0.431446,-8.985154 1.757036,-13.067692 2.0158,-6.20824 4.679459,-9.2192457 9.396786,-10.6221522 0.753438,-0.2240679 1.570184,-0.295159 3.390985,-0.295159 2.221537,0 2.475129,0.03228 3.4371,0.4375835 1.723713,0.726238 2.840284,1.4797894 4.268002,2.8803969 2.751751,2.6994968 4.432076,6.1102208 5.340237,10.8396358 0.678152,3.531586 1.00298,9.131606 0.685367,11.815754 -0.232972,1.968865 -1.092543,5.414245 -1.830672,7.337794 -1.559729,4.064646 -4.846249,9.140297 -8.602221,13.285145 l -1.153499,1.272929 1.362617,1.100156 c 2.349029,1.896572 5.218444,3.440758 8.042185,4.327929 1.638717,0.514855 1.432035,0.66525 -0.528112,0.384283 -2.625058,-0.376273 -6.151913,-1.806974 -9.081121,-3.683848 l -1.285692,-0.823795 -0.533862,0.438229 c -4.6776,3.839661 -8.683019,5.739885 -12.944492,6.141038 l -1.162488,0.109432 z M 39.429891,49.61794 c 2.819917,-2.724393 4.242676,-4.952555 5.896774,-9.234851 1.419383,-3.674649 1.988926,-6.603191 2.259973,-11.62065 C 48.155773,18.226951 45.371919,11.742604 39.559239,10.064462 38.821597,9.8515016 38.192887,9.8008475 37.037455,9.8612852 c -2.061838,0.107852 -3.219974,0.6622328 -4.732158,2.2652278 -3.086793,3.272165 -4.599052,8.071569 -5.111561,16.222392 -0.171123,2.721528 -0.160924,3.234046 0.09217,4.631588 0.73908,4.081013 2.879804,8.971493 5.594735,12.781172 1.492297,2.09404 4.387867,5.573381 4.641841,5.577675 0.06792,10e-4 0.92625,-0.773483 1.907406,-1.7214 z"
       id="path1" />
  </g>
  <path
     style="fill:#000000;stroke-width:0.264583"
     d="m -10.439129,-13.386648 85.478044,4.6669051"
     id="path2" />
</svg>
